<svg width="154" height="67" viewBox="0 0 154 67" fill="none" xmlns="http://www.w3.org/2000/svg">
<g clip-path="url(#clip0_25_486)">
<path d="M1.67383 59.7416H152.326" stroke="#313131" stroke-width="1.5" stroke-linecap="round" stroke-linejoin="round"/>
<path d="M54.9602 9.49169C54.9602 14.2268 50.884 18.1459 45.7536 18.1459C40.6233 18.1459 36.5471 14.2268 36.5471 9.49169C36.5471 4.75659 40.6233 0.837524 45.7536 0.837524C50.884 0.837524 54.9602 4.75659 54.9602 9.49169Z" fill="white" stroke="#313131" stroke-width="1.5"/>
<path d="M46.8695 14.7958C49.4888 14.7958 51.6122 12.671 51.6122 10.05C51.6122 7.42892 49.4888 5.30414 46.8695 5.30414C44.2501 5.30414 42.1267 7.42892 42.1267 10.05C42.1267 12.671 44.2501 14.7958 46.8695 14.7958Z" fill="white" stroke="#313131" stroke-width="1.5"/>
<path d="M90.1123 9.49169C90.1123 14.2268 94.1885 18.1459 99.3188 18.1459C104.449 18.1459 108.525 14.2268 108.525 9.49169C108.525 4.75659 104.449 0.837524 99.3188 0.837524C94.1885 0.837524 90.1123 4.75659 90.1123 9.49169Z" fill="white" stroke="#313131" stroke-width="1.5"/>
<path d="M98.203 14.7958C100.822 14.7958 102.946 12.671 102.946 10.05C102.946 7.42892 100.822 5.30414 98.203 5.30414C95.5836 5.30414 93.4602 7.42892 93.4602 10.05C93.4602 12.671 95.5836 14.7958 98.203 14.7958Z" fill="white" stroke="#313131" stroke-width="1.5"/>
<path d="M7.2535 23.45C8.17798 23.45 8.92742 22.7001 8.92742 21.775C8.92742 20.8499 8.17798 20.1 7.2535 20.1C6.32903 20.1 5.57959 20.8499 5.57959 21.775C5.57959 22.7001 6.32903 23.45 7.2535 23.45Z" fill="#313131"/>
<path d="M21.7608 23.45C22.6853 23.45 23.4347 22.7001 23.4347 21.775C23.4347 20.8499 22.6853 20.1 21.7608 20.1C20.8364 20.1 20.0869 20.8499 20.0869 21.775C20.0869 22.7001 20.8364 23.45 21.7608 23.45Z" fill="#313131"/>
<path d="M123.312 23.45C124.236 23.45 124.986 22.7001 124.986 21.775C124.986 20.8499 124.236 20.1 123.312 20.1C122.387 20.1 121.638 20.8499 121.638 21.775C121.638 22.7001 122.387 23.45 123.312 23.45Z" fill="#313131"/>
<path d="M137.819 23.45C138.743 23.45 139.493 22.7001 139.493 21.775C139.493 20.8499 138.743 20.1 137.819 20.1C136.894 20.1 136.145 20.8499 136.145 21.775C136.145 22.7001 136.894 23.45 137.819 23.45Z" fill="#313131"/>
<path d="M106.294 31.2667C106.294 47.9941 91.2621 61.6959 72.5363 61.6959C53.8105 61.6959 38.7791 47.9941 38.7791 31.2667C38.7791 14.5392 53.8105 0.837524 72.5363 0.837524C91.2621 0.837524 106.294 14.5392 106.294 31.2667Z" fill="white" stroke="#313131" stroke-width="1.5"/>
<path d="M67.5145 33.5C68.439 33.5 69.1884 32.7501 69.1884 31.825C69.1884 30.8999 68.439 30.15 67.5145 30.15C66.59 30.15 65.8406 30.8999 65.8406 31.825C65.8406 32.7501 66.59 33.5 67.5145 33.5Z" fill="#313131"/>
<path d="M77.5579 33.5C78.4824 33.5 79.2319 32.7501 79.2319 31.825C79.2319 30.8999 78.4824 30.15 77.5579 30.15C76.6335 30.15 75.884 30.8999 75.884 31.825C75.884 32.7501 76.6335 33.5 77.5579 33.5Z" fill="#313131"/>
<path d="M73.0943 37.9666C74.0188 37.9666 74.7682 37.2167 74.7682 36.2916C74.7682 35.3666 74.0188 34.6166 73.0943 34.6166C72.1698 34.6166 71.4204 35.3666 71.4204 36.2916C71.4204 37.2167 72.1698 37.9666 73.0943 37.9666Z" fill="#313131"/>
<path d="M70.8623 42.4333L73.0942 39.6417L75.884 42.4333" stroke="#313131" stroke-width="1.5" stroke-linecap="round" stroke-linejoin="round"/>
<path d="M61.6559 57.5084C61.6559 62.1 56.7482 66.1625 50.2175 66.1625C43.6867 66.1625 38.7791 62.1 38.7791 57.5084C38.7791 52.9167 43.6867 48.8542 50.2175 48.8542C56.7482 48.8542 61.6559 52.9167 61.6559 57.5084Z" fill="white" stroke="#313131" stroke-width="1.5"/>
<path d="M106.294 57.5084C106.294 62.1 101.386 66.1625 94.8552 66.1625C88.3244 66.1625 83.4167 62.1 83.4167 57.5084C83.4167 52.9167 88.3244 48.8542 94.8552 48.8542C101.386 48.8542 106.294 52.9167 106.294 57.5084Z" fill="white" stroke="#313131" stroke-width="1.5"/>
</g>
<defs>
<clipPath id="clip0_25_486">
<rect width="154" height="67" fill="white"/>
</clipPath>
</defs>
</svg>
